PathFileType	4	(X/Y/Z)	Run_200 02
DataRate	CameraRate	NumFrames	NumMarkers	Units	OrigDataRate	OrigDataStartFrame	OrigNumFrames
100	100	6	42	mm	100	17	128
Frame#	Time	LASI			RASI			LPSI			RPSI			RTH1			RTH2			RTH3			LTH1			LTH2			LTH3			RTB1			RTB2			RTB3			LTB1			LTB2			LTB3			RCAL			RTOE			RMT5			LCAL			LTOE			LMT5			LACR			RACR			CLAV			C7			RUA1			RUA2			RUA3			RLEL			RMEL			LUA1			LUA2			LUA3			LLEL			LMEL			RFAsuperior			RFAradius			RFAulna			LFAsuperior			LFAradius			LFAulna			
		X1	Y1	Z1	X2	Y2	Z2	X3	Y3	Z3	X4	Y4	Z4	X5	Y5	Z5	X6	Y6	Z6	X7	Y7	Z7	X8	Y8	Z8	X9	Y9	Z9	X10	Y10	Z10	X11	Y11	Z11	X12	Y12	Z12	X13	Y13	Z13	X14	Y14	Z14	X15	Y15	Z15	X16	Y16	Z16	X17	Y17	Z17	X18	Y18	Z18	X19	Y19	Z19	X20	Y20	Z20	X21	Y21	Z21	X22	Y22	Z22	X23	Y23	Z23	X24	Y24	Z24	X25	Y25	Z25	X26	Y26	Z26	X27	Y27	Z27	X28	Y28	Z28	X29	Y29	Z29	X30	Y30	Z30	X31	Y31	Z31	X32	Y32	Z32	X33	Y33	Z33	X34	Y34	Z34	X35	Y35	Z35	X36	Y36	Z36	X37	Y37	Z37	X38	Y38	Z38	X39	Y39	Z39	X40	Y40	Z40	X41	Y41	Z41	X42	Y42	Z42	

1	1.41	726.754522	1052.396249	-437.708864	723.58786	1053.890998	-181.080314	556.216995	1078.533772	-360.061001	554.681058	1075.015563	-260.009674	656.082928	855.666698	-135.837072	762.177282	763.997613	-142.659184	722.794773	635.758699	-177.682048	594.005748	856.9719710000001	-487.332888	650.089522	725.813158	-465.410369	567.287972	624.861776	-451.272643	840.359536	415.641942	-254.086354	822.859994	354.279901	-191.574395	847.819745	249.155673	-262.32135	483.895293	397.103028	-383.646955	392.558964	367.601057	-445.732862	373.826273	285.796897	-380.179358	760.968516	94.170492	-273.357829	983.398074	125.906169	-282.256746	939.2282300000001	92.261053	-195.730676	204.368604	267.84986	-371.239982	331.419801	82.147223	-336.086202	279.319943	94.115821	-427.532431	735.929037	1520.203541	-484.717601	698.515456	1535.891356	-158.456941	765.8313439999999	1464.983672	-284.235838	654.215457	1545.591823	-331.554005	612.253752	1485.919241	-89.858754	539.3518780000001	1436.988269	-140.536601	533.108292	1382.034768	-83.647199	459.785187	1296.969061	-72.342028	466.262468	1292.037388	-154.713663	710.850366	1430.207941	-565.820741	655.862599	1348.279504	-553.17513	685.5079449999999	1284.343964	-599.357804	706.6327240000001	1199.467657	-618.480026	660.31035	1188.028637	-552.045014	536.897876	1221.473834	-51.323155	661.022858	1121.773159	-70.02649099999999	602.59001	1078.241324	-72.16950799999999	803.937274	1206.345296	-566.969212	904.725253	1222.389876	-440.366025	924.694072	1159.880319	-469.74268	
2	1.42	725.878971	1049.791518	-437.582689	723.882007	1050.287514	-180.467083	555.616883	1073.753923	-359.357892	554.024491	1070.436839	-259.305959	656.6082249999999	850.548579	-135.719538	762.561287	759.25524	-140.227544	723.414516	631.801407	-178.277406	601.001784	852.184789	-485.239394	656.5194310000001	720.986166	-463.453949	576.0963	618.256152	-450.987468	836.970023	410.447975	-255.711319	820.037858	349.578017	-194.142458	841.878885	244.248185	-264.477139	489.744814	392.990905	-383.755531	397.190007	367.97245	-446.062006	374.189868	287.345548	-380.726954	751.713014	93.662442	-275.546287	974.758999	116.745645	-283.082545	928.6596489999999	85.887469	-196.645346	206.237307	280.281139	-373.13361	318.247671	85.399474	-337.402359	267.27438	100.835604	-428.264076	735.399141	1516.659475	-483.109886	699.285841	1531.673724	-156.727107	765.86	1461.109129	-283.037944	654.163484	1541.911302	-329.502934	613.54385	1481.049932	-87.490675	540.437098	1431.888886	-138.001296	535.017723	1376.404941	-81.608968	462.312154	1290.818009	-70.425781	468.592748	1286.088582	-152.79284	709.66295	1427.109557	-564.161018	654.964291	1345.187772	-551.817057	684.255635	1281.488867	-598.528492	705.311117	1196.648528	-618.105646	658.731494	1185.179778	-551.8435919999999	540.428461	1216.171285	-49.771582	665.701501	1117.95901	-68.94645800000001	607.705159	1073.783548	-71.114835	802.711401	1201.777424	-566.202262	902.93534	1216.500154	-439.084787	922.3888909999999	1154.026275	-468.616199	
3	1.43	724.8809220000001	1046.314679	-437.791741	724.016091	1045.923026	-179.677209	554.950182	1067.542785	-358.77723	553.298954	1064.432015	-258.693577	657.77282	844.9090660000001	-136.412137	764.149231	754.94663	-140.129253	724.139189	627.287328	-178.881967	608.597396	846.717652	-483.515613	663.542859	715.47615	-461.867513	585.698262	610.8365219999999	-450.86126	832.695171	403.893805	-257.673923	814.730827	343.389783	-196.595998	833.047501	237.505097	-265.948104	497.176878	387.983696	-384.214356	403.536681	367.85333	-446.494107	376.450442	288.364388	-381.550425	738.493978	93.98495699999999	-277.358248	961.9658030000001	103.936467	-284.300489	914.1059299999999	76.869998	-197.648593	211.231229	292.26081	-375.029556	306.394075	88.741246	-338.818673	256.289137	107.901308	-428.776488	734.8203999999999	1511.931437	-481.604964	700.21444	1526.419607	-155.117573	765.761046	1456.100414	-281.954011	653.997676	1537.283765	-327.383767	615.213601	1475.063961	-84.99518	541.683428	1425.612028	-134.836959	537.5324409999999	1369.473088	-78.976941	465.583997	1283.341867	-67.712785	471.447027	1278.815122	-150.103599	708.595479	1422.821322	-562.666184	653.623765	1341.076682	-550.334285	682.41159	1277.502042	-597.555026	703.1567700000001	1192.588352	-617.660926	656.5098	1181.260308	-551.418953	544.739952	1209.680357	-47.672526	671.184501	1113.087526	-67.617276	613.754281	1068.187367	-69.587588	800.76814	1195.753746	-565.644964	900.923987	1208.874461	-438.289183	919.482713	1146.207832	-468.069624	
4	1.44	723.899909	1041.83895	-438.23285	723.800822	1040.672128	-178.787065	554.206112	1060.146582	-358.203321	552.506661	1057.241106	-258.0781	659.1267350000001	839.531314	-137.839367	766.123326	751.032338	-142.331796	724.382583	622.117319	-179.871459	616.4996190000001	840.804082	-482.281871	670.786701	709.34702	-460.777951	595.833577	602.793721	-450.968775	828.399738	396.635141	-259.625028	807.843698	336.478325	-198.816736	822.524587	229.630237	-266.543592	505.931135	382.254419	-385.077997	411.393813	367.177291	-447.127092	380.388158	288.928869	-382.704167	722.767685	94.838998	-278.703259	946.406327	90.442007	-285.502738	897.1131339999999	67.79510399999999	-198.269247	218.799836	303.39088	-376.594158	296.690526	92.589811	-340.29526	246.826495	115.483435	-429.111296	734.094168	1506.112136	-480.201315	701.267435	1520.198295	-153.601281	765.5960679999999	1449.981305	-281.008909	653.619492	1531.673506	-325.269633	617.2264730000001	1467.986424	-82.389279	543.08662	1418.227768	-131.058167	540.6095309999999	1361.322382	-75.815781	469.547128	1274.627495	-64.240894	475.022581	1270.267191	-146.760896	707.5372599999999	1417.362738	-561.449465	651.827073	1335.937875	-548.841931	680.011312	1272.395906	-596.542764	700.188927	1187.358745	-617.155261	653.608774	1176.302276	-550.832596	549.796678	1202.080158	-45.044066	677.362387	1107.234445	-66.06938	620.6270469999999	1061.538172	-67.60250600000001	798.0976439999999	1188.398105	-565.306138	898.660483	1199.753169	-437.928773	915.959401	1136.515212	-468.087479	
5	1.45	723.040937	1036.238971	-438.654767	722.966139	1034.549022	-177.927658	553.204327	1051.774445	-357.618862	551.465807	1049.059549	-257.459993	659.7957730000001	834.7396670000001	-139.158633	767.261085	747.332419	-145.266279	724.118651	616.7474089999999	-181.292674	624.286397	834.361495	-481.312617	677.846288	702.5279839999999	-459.959872	606.305099	594.193622	-451.203203	824.7831619999999	389.887919	-261.289838	801.056916	330.25195	-200.669945	811.578035	222.39118	-266.644445	515.751832	376.299469	-386.1492	420.486762	365.943964	-447.964138	385.699406	289.346525	-384.009748	705.672874	95.777863	-279.569684	929.364702	79.65549	-286.748268	878.980897	61.693064	-198.261488	227.735314	313.446671	-377.432693	290.236694	97.25182100000001	-342.213163	240.008499	123.770445	-429.632196	733.149268	1499.408239	-478.956648	702.352881	1513.226353	-152.039758	765.483954	1442.896555	-280.213269	652.984688	1525.202573	-323.238551	619.547912	1459.776646	-79.677993	544.6227720000001	1409.737437	-126.761963	544.181403	1352.019469	-72.189145	474.1651	1264.779295	-60.075715	479.220058	1260.535813	-142.818389	706.11672	1410.802859	-560.504375	649.569779	1329.789334	-547.46601	677.062715	1266.198702	-595.567896	696.399869	1181.106188	-616.526355	650.018398	1170.421723	-550.093145	555.572172	1193.460524	-41.902658	684.124194	1100.479532	-64.366635	628.157204	1053.972646	-65.216994	794.705613	1179.858699	-565.1802750000001	896.125031	1189.052004	-438.041251	911.8394500000001	1125.08648	-468.690727	
6	1.46	722.301012	1029.511074	-438.758918	721.387208	1027.936588	-177.055095	551.695856	1042.545099	-357.256359	549.913892	1040.016918	-257.073574	659.1822519999999	830.441625	-139.380277	766.87773	743.80414	-147.149722	723.969164	612.161041	-182.539886	631.5389699999999	827.046601	-480.42255	684.542581	695.10652	-459.216931	617.0594610000001	585.076493	-451.272552	821.71395	384.820648	-262.683869	795.576725	326.040421	-202.050859	800.6761320000001	217.591407	-266.876131	526.50543	370.738796	-387.069585	430.598249	364.377907	-448.866818	392.24338	290.03179	-385.114883	687.726217	96.55577099999999	-279.959344	911.630044	73.5288	-288.076245	860.48155	59.982956	-197.742755	236.91311	322.449907	-377.371018	288.033439	102.676717	-345.001897	237.240108	132.677252	-430.799107	731.935716	1492.143229	-478.044143	703.315792	1505.898254	-150.268036	765.496667	1435.197114	-279.534434	652.21505	1518.313656	-321.300516	622.199421	1450.433953	-76.90144100000001	546.3000950000001	1400.152477	-122.026029	548.226309	1341.634712	-68.149816	479.460844	1253.947799	-55.316363	483.576744	1249.727886	-138.203152	703.913038	1403.323297	-559.752246	646.806773	1322.704167	-546.266608	673.569249	1259.037558	-594.632472	691.759292	1174.044291	-615.678436	645.782338	1163.831937	-549.122616	562.045582	1183.919741	-38.274504	691.458096	1092.903211	-62.539865	636.248857	1045.639817	-62.519902	790.604782	1170.304727	-565.263348	893.27324	1176.443356	-438.732512	907.141712	1112.112717	-469.970534	
